<svg xmlns="http://www.w3.org/2000/svg" width="963" height="561" viewBox="0 0 963 561"><g><g><path fill="#7347c1" d="M3 0h960v561H3z"/></g><g opacity=".3"><path fill="#600a91" d="M1.99 550.907s119.628 13.456 234.27-44.851c0 0 129.596-70.641 324.986 16.819 0 0 133.584 69.52 321-20.183 0 0 36.884-23.548 78.754-3.364v60.549H.994z"/></g><g opacity=".1"><path fill="#600a91" d="M0 279.108s329 460.783 960-61.109v343H0z"/></g><g opacity=".1"><path fill="#600a91" d="M960 376.685S430 649.705 0 218v343h960z"/></g><g opacity=".2"><path fill="#600a91" d="M2.993 435.518s86.09 5.607 216.228-43.738c0 0 156.165-66.166 353.374 21.308 0 0 223.236 91.96 389.411-16.823v163.736H.991z"/></g><g opacity=".15"><path fill="#600a91" d="M.997 368.5s100.896-49.316 240.752 17.931c0 0 153.842 82.939 288.703 25.778 0 0 271.72-122.166 430.557-20.174v166.998H2.995z"/></g><g opacity=".1"><path fill="#600a91" d="M.997 340.117s154.84-48.24 296.693 62.824c0 0 141.854 106.576 303.687 2.244 0 0 169.824-139.11 361.626-70.677v225.493H1.996z"/></g></g></svg>