<svg xmlns="http://www.w3.org/2000/svg" width="100" height="100" viewBox="0 0 100 100"><g><g><path fill="#fff" d="M99.308 90.792a2.087 2.087 0 0 1 0 2.95l-5.64 5.644a2.083 2.083 0 0 1-2.947 0L79.703 88.359l-4.992 4.997a2.091 2.091 0 0 1-.72.467 50.49 50.49 0 0 1-4.103 2.002h.899a2.085 2.085 0 0 1 0 4.171h-41.67a2.085 2.085 0 1 1 0-4.17h.772a49.574 49.574 0 0 1-4.94-2.497C13.43 86.673 5.176 75.877 1.71 62.93c-3.467-12.948-1.713-26.43 4.939-37.96 6.651-11.53 17.44-19.791 30.377-23.26C49.962-1.76 63.432-.003 74.953 6.653c11.405 6.59 19.625 17.263 23.148 30.054 3.518 12.776 1.933 26.142-4.465 37.635-.153.275-.36.5-.6.672l-4.747 4.752zm-28.518.005l-6.363-23.765a2.084 2.084 0 1 1 2.552-2.553l23.789 6.378c10.99-21.529 3.18-48.414-17.898-60.593-10.558-6.1-22.905-7.707-34.767-4.526-11.862 3.18-21.751 10.75-27.846 21.316C4.16 37.62 2.555 49.977 5.733 61.849c3.179 11.871 10.743 21.769 21.3 27.869 13.332 7.704 29.965 8.08 43.757 1.079zm24.098 1.47L83.87 81.239a2.085 2.085 0 0 1 0-2.949l3.913-3.916-18.397-4.933 4.93 18.411 3.914-3.917a2.086 2.086 0 0 1 2.946 0l11.018 11.028zM20.934 59.57c-.505-.495-.757-1.297-.757-2.406V42.61c0-2.18 1.039-3.268 3.117-3.268h3.472c1.128 0 2.207.06 3.236.178 1.702.177 2.958.678 3.77 1.5.81.821 1.216 1.996 1.216 3.52 0 1.286-.247 2.317-.742 3.09-.494.771-1.276 1.337-2.345 1.693 1.247.297 2.182.836 2.805 1.619.624.78.935 1.876.935 3.282 0 2.812-1 4.615-2.998 5.406-1.148.456-3.166.684-6.055.684h-3.295c-1.068 0-1.855-.248-2.359-.743zm3.339-15.864v4.16h2.73c1.267 0 2.108-.09 2.523-.268.89-.376 1.336-1.149 1.336-2.317 0-.773-.144-1.332-.43-1.678-.287-.347-.708-.608-1.262-.788-.435-.118-1.088-.178-1.959-.178h-2.047c-.594 0-.891.358-.891 1.07zm0 7.427v4.634c0 .397.084.685.252.863.168.177.46.267.876.267h2.196c1.128 0 1.94-.1 2.434-.297.95-.376 1.425-1.298 1.425-2.764 0-1.188-.505-1.99-1.514-2.405-.514-.198-1.435-.298-2.76-.298zm44.443 8.318V51.61l-6.53-10.695c-.258-.436-.386-.763-.386-.98 0-.257.128-.447.386-.565.218-.079 1.326-.119 3.324-.119.474 0 .87.278 1.187.832 1.9 3.15 3.305 5.605 4.215 7.368.752-1.446 2.167-3.882 4.244-7.308.337-.595.743-.892 1.217-.892 1.702 0 2.701.05 2.998.15.238.098.356.267.357.504 0 .22-.119.535-.356.951l-6.53 10.634v7.962c0 .277-.08.495-.238.653a.8.8 0 0 1-.594.238h-2.493c-.535 0-.802-.297-.802-.89zm-11.121-19.31v11.794c0 1.584-.06 2.812-.178 3.684-.119.871-.356 1.615-.713 2.229-1.167 1.92-3.64 2.88-7.42 2.88-3.839 0-6.233-1.029-7.183-3.089-.435-.95-.653-2.832-.653-5.644V40.143c0-.555.267-.832.802-.832h2.612c.455 0 .682.277.682.832v12.744c0 1.564.208 2.634.623 3.208.554.792 1.673 1.188 3.355 1.188 1.82 0 2.988-.377 3.502-1.129.435-.613.653-1.682.653-3.207V40.143c0-.555.267-.832.801-.832h2.404c.475 0 .713.278.713.832zM41.719 88.8a2.085 2.085 0 0 1-2.552 1.474C24.833 86.428 13.543 75.13 9.702 60.785a2.084 2.084 0 1 1 4.025-1.08c3.457 12.91 13.618 23.08 26.519 26.54a2.087 2.087 0 0 1 1.473 2.554zm17.94-75.062a2.086 2.086 0 0 1 1.077-4.028C75.07 13.553 86.361 24.85 90.201 39.196a2.087 2.087 0 0 1-2.013 2.627c-.92 0-1.762-.614-2.012-1.546-3.456-12.911-13.618-23.08-26.518-26.54zm-8.94 75.92a2.085 2.085 0 0 1-2.082 2.015l-.072-.001c-.585-.021-1.167-.051-1.73-.094a2.084 2.084 0 0 1-1.922-2.235 2.084 2.084 0 0 1 2.233-1.924 38.33 38.33 0 0 0 1.56.084 2.085 2.085 0 0 1 2.012 2.155zm-1.533-79.335a2.08 2.08 0 0 1 2.154-2.01 41.57 41.57 0 0 1 1.73.092 2.085 2.085 0 0 1-.313 4.159 38.826 38.826 0 0 0-1.561-.084 2.086 2.086 0 0 1-2.01-2.156z"/></g></g></svg>