<svg xmlns="http://www.w3.org/2000/svg" width="20" height="18.969" viewBox="0 0 20 18.969">
  <defs>
    <style>
      .cls-1 {
        fill: #747b86;
        fill-rule: evenodd;
      }
    </style>
  </defs>
  <path id="List" class="cls-1" d="M1508.72,411.149h-12.21a0.288,0.288,0,1,0,0,.575h12.21A0.288,0.288,0,1,0,1508.72,411.149Zm0-1.842h-12.21a0.288,0.288,0,1,0,0,.575h12.21A0.288,0.288,0,1,0,1508.72,409.307Zm-15.03-1.535h-3.75a0.91,0.91,0,0,0-.92.9v3.684a0.91,0.91,0,0,0,.92.9h3.75a0.91,0.91,0,0,0,.92-0.9v-3.684A0.91,0.91,0,0,0,1493.69,407.772Zm0.34,4.586a0.332,0.332,0,0,1-.34.326h-3.75a0.332,0.332,0,0,1-.34-0.326v-3.684a0.333,0.333,0,0,1,.34-0.327h3.75a0.333,0.333,0,0,1,.34.327v3.684Zm14.69-7.963h-12.21a0.288,0.288,0,1,0,0,.576h12.21A0.288,0.288,0,1,0,1508.72,404.4Zm-12.21-1.266h12.21a0.288,0.288,0,1,0,0-.576h-12.21A0.288,0.288,0,1,0,1496.51,403.129Zm-2.82-2.111h-3.75a0.911,0.911,0,0,0-.92.9V405.6a0.911,0.911,0,0,0,.92.9h3.75a0.911,0.911,0,0,0,.92-0.9V401.92A0.911,0.911,0,0,0,1493.69,401.018Zm0.34,4.586a0.332,0.332,0,0,1-.34.326h-3.75a0.332,0.332,0,0,1-.34-0.326V401.92a0.332,0.332,0,0,1,.34-0.326h3.75a0.332,0.332,0,0,1,.34.326V405.6Zm14.69,12.3h-12.21a0.288,0.288,0,1,0,0,.576h12.21A0.288,0.288,0,1,0,1508.72,417.9Zm0-1.841h-12.21a0.288,0.288,0,1,0,0,.575h12.21A0.288,0.288,0,1,0,1508.72,416.061Zm-15.03-1.535h-3.75a0.91,0.91,0,0,0-.92.9v3.684a0.911,0.911,0,0,0,.92.9h3.75a0.911,0.911,0,0,0,.92-0.9v-3.684A0.91,0.91,0,0,0,1493.69,414.526Zm0.34,4.585a0.333,0.333,0,0,1-.34.327h-3.75a0.333,0.333,0,0,1-.34-0.327v-3.684a0.332,0.332,0,0,1,.34-0.326h3.75a0.332,0.332,0,0,1,.34.326v3.684Z" transform="translate(-1489.03 -401.031)"/>
</svg>
