<svg xmlns="http://www.w3.org/2000/svg" width="13" height="17" viewBox="0 0 13 17"><g><g><path fill="#7347c1" d="M13 4.281V15.19c0 .999-.816 1.81-1.818 1.81H1.818A1.816 1.816 0 0 1 0 15.189V1.81C0 .81.816-.002 1.818-.002h6.863zM11.886 15.19L11.859 4.72l-2.334.007a1.259 1.259 0 0 1-1.26-1.255v-2.37l-6.447.006a.703.703 0 0 0-.704.7V15.19c0 .388.316.702.704.702h9.364a.703.703 0 0 0 .704-.702zM6.06 7.363c.295.233.494.615.494 1.066 0 .45-.151.832-.425 1.092-.357.334-.885.484-1.503.484-.137 0-.26-.007-.356-.02v1.644H3.235V7.091a8.546 8.546 0 0 1 1.413-.096c.645 0 1.104.123 1.413.368zm-.542 1.093c0-.423-.295-.676-.816-.676-.213 0-.357.02-.432.04V9.18c.089.02.199.027.35.027.555 0 .898-.28.898-.75zm4.701 1.815c0 .772-.597 1.427-1.866 1.427-.528 0-1.05-.137-1.31-.28l.213-.86c.281.144.713.287 1.16.287.48 0 .733-.199.733-.499 0-.287-.22-.45-.775-.649-.768-.266-1.269-.689-1.269-1.357 0-.785.659-1.386 1.75-1.386.52 0 .904.11 1.179.233l-.233.84a2.21 2.21 0 0 0-.968-.22c-.452 0-.672.205-.672.444 0 .293.261.423.858.649.816.3 1.2.722 1.2 1.371z"/></g></g></svg>